<svg width="24" height="24" viewBox="0 0 24 24" fill="none" xmlns="http://www.w3.org/2000/svg">
<path d="M12 3C10.5 3 9 4.5 9 7C9 8 9.5 9 10 9.5C8.5 10.5 7 12 6 13C5 14 5 15.5 6 16.5C7 17.5 8.5 17.5 9.5 17C10.5 16.5 11 15.5 12 15C13 15.5 13.5 16.5 14.5 17C15.5 17.5 17 17.5 18 16.5C19 15.5 19 14 18 13C17 12 15.5 10.5 14 9.5C14.5 9 15 8 15 7C15 4.5 13.5 3 12 3Z" stroke="#9B9690" stroke-width="2" stroke-linejoin="round"/>
<path d="M12 15V21" stroke="#9B9690" stroke-width="2" stroke-linecap="round"/>
</svg>
